<svg xmlns="http://www.w3.org/2000/svg" width="1200" height="630" viewBox="0 0 1200 630" role="img" aria-labelledby="title desc">
  <title id="title">BayadTayoOpo — Add now. Track now. Invite later.</title>
  <desc id="desc">Add everyone by name and track shared expenses before they create an account.</desc>
  <defs>
    <linearGradient id="bg" x1="0" y1="0" x2="1200" y2="630" gradientUnits="userSpaceOnUse"><stop stop-color="#F8F7FF"/><stop offset="1" stop-color="#EFEDFF"/></linearGradient>
    <linearGradient id="brand" x1="0" y1="0" x2="1" y2="1"><stop stop-color="#6A58FF"/><stop offset="1" stop-color="#4B3DE5"/></linearGradient>
    <filter id="shadow" x="-30%" y="-30%" width="160%" height="180%"><feDropShadow dx="0" dy="20" stdDeviation="22" flood-color="#352A89" flood-opacity="0.18"/></filter>
  </defs>
  <rect width="1200" height="630" fill="url(#bg)"/>
  <circle cx="1150" cy="-24" r="260" fill="#5B4CF5" opacity="0.08"/>
  <circle cx="16" cy="650" r="250" fill="#5B4CF5" opacity="0.06"/>

  <g transform="translate(64 58)">
    <rect width="68" height="68" rx="19" fill="url(#brand)" filter="url(#shadow)"/>
    <g transform="translate(9 9) scale(.098)" fill="#FFFFFF">
      <path d="M102 112h79c42 0 75 31 75 70s-33 70-75 70h-79V112Zm0 148h83c44 0 79 31 79 70s-35 70-79 70h-83V260Z"/>
      <path d="M260 112h150v72h-39v92h-72v-92h-39v-72Z"/>
      <path fill-rule="evenodd" d="M335 258c50 0 89 31 89 72s-39 72-89 72-89-31-89-72 39-72 89-72Zm0 49c-18 0-31 9-31 23s13 23 31 23 31-9 31-23-13-23-31-23Z"/>
    </g>
    <text x="88" y="45" fill="#11121A" font-family="Avenir Next, Avenir, Inter, Arial, sans-serif" font-size="30" font-weight="750" letter-spacing="-1.2">BayadTayo<tspan font-weight="450">Opo</tspan></text>
  </g>

  <g transform="translate(64 190)" font-family="Avenir Next, Avenir, Inter, Arial, sans-serif">
    <text fill="#11121A" font-size="58" font-weight="760" letter-spacing="-2.4"><tspan x="0" y="0">Add now. Track now.</tspan><tspan x="0" y="69" fill="#5B4CF5">Invite later.</tspan></text>
    <text x="0" y="125" fill="#66677A" font-size="22" font-weight="500"><tspan x="0">Start tracking shared expenses before</tspan><tspan x="0" dy="32">everyone creates an account.</tspan></text>
    <g transform="translate(0 210)" font-size="16" font-weight="650">
      <g><rect width="178" height="46" rx="23" fill="#FFFFFF" stroke="#DDD9FF"/><circle cx="25" cy="23" r="11" fill="#EEEBFF"/><text x="21" y="29" fill="#5B4CF5" font-size="16">+</text><text x="45" y="29" fill="#323341">Add by name</text></g>
      <g transform="translate(190)"><rect width="186" height="46" rx="23" fill="#FFFFFF" stroke="#DDD9FF"/><circle cx="25" cy="23" r="11" fill="#EEEBFF"/><path d="M20 23h10M25 18v10" stroke="#5B4CF5" stroke-width="2" stroke-linecap="round"/><text x="45" y="29" fill="#323341">Track instantly</text></g>
    </g>
    <text x="0" y="307" fill="#5B4CF5" font-size="17" font-weight="700">bayadtayoopo.web.app</text>
  </g>

  <g transform="translate(742 55)" filter="url(#shadow)" font-family="Avenir Next, Avenir, Inter, Arial, sans-serif">
    <rect width="394" height="520" rx="44" fill="#111827"/><rect x="7" y="7" width="380" height="506" rx="38" fill="#FFFFFF"/>
    <rect x="150" y="17" width="94" height="24" rx="12" fill="#111827"/><text x="27" y="35" fill="#11121A" font-size="11" font-weight="700">9:41</text>
    <text x="28" y="88" fill="#11121A" font-size="22" font-weight="750">Weekend Getaway</text><text x="28" y="109" fill="#77788B" font-size="12">4 people · PHP</text>
    <rect x="317" y="68" width="44" height="44" rx="14" fill="#5B4CF5"/><text x="339" y="95" text-anchor="middle" fill="#FFFFFF" font-size="12" font-weight="750">WG</text><line x1="7" y1="133" x2="387" y2="133" stroke="#E8E8EF"/>
    <text x="28" y="168" fill="#5B4CF5" font-size="12" font-weight="750" letter-spacing="1.2">ADD MEMBERS</text><text x="28" y="193" fill="#11121A" font-size="18" font-weight="750">Names are enough for now.</text>
    <g transform="translate(28 216)">
      <g><rect width="338" height="62" rx="18" fill="#F8F7FF" stroke="#E4E1FF"/><circle cx="31" cy="31" r="19" fill="#DFF3FF"/><text x="31" y="36" text-anchor="middle" fill="#2E7BA6" font-size="12" font-weight="750">A</text><text x="62" y="28" fill="#22232D" font-size="15" font-weight="700">Alex</text><text x="62" y="45" fill="#88899A" font-size="11">Included in expenses</text><rect x="262" y="20" width="58" height="22" rx="11" fill="#FFF1D4"/><text x="291" y="35" text-anchor="middle" fill="#B56C00" font-size="10" font-weight="750">Pending</text></g>
      <g transform="translate(0 72)"><rect width="338" height="62" rx="18" fill="#F8F7FF" stroke="#E4E1FF"/><circle cx="31" cy="31" r="19" fill="#FFE2E7"/><text x="31" y="36" text-anchor="middle" fill="#B8405B" font-size="12" font-weight="750">M</text><text x="62" y="28" fill="#22232D" font-size="15" font-weight="700">Mika</text><text x="62" y="45" fill="#88899A" font-size="11">Included in expenses</text><rect x="262" y="20" width="58" height="22" rx="11" fill="#FFF1D4"/><text x="291" y="35" text-anchor="middle" fill="#B56C00" font-size="10" font-weight="750">Pending</text></g>
    </g>
    <g transform="translate(28 376)"><rect width="338" height="86" rx="20" fill="#5B4CF5"/><text x="20" y="29" fill="#DCD9FF" font-size="11" font-weight="700">BEACH HOUSE</text><text x="20" y="59" fill="#FFFFFF" font-size="25" font-weight="750">₱8,000</text><text x="316" y="58" text-anchor="end" fill="#FFFFFF" font-size="12" font-weight="650">₱2,000 each</text></g>
    <text x="197" y="489" text-anchor="middle" fill="#77788B" font-size="11" font-weight="650">No one had to sign up first.</text>
  </g>
</svg>
